HIERARCHY
ROOT hip
{
	OFFSET 0.000000 0.000000 0.000000 
	CHANNELS 6 Xposition Yposition Zposition Xrotation Zrotation Yrotation
	JOINT abdomen
	{
		OFFSET 0.000000 3.402643 0.000000 
		CHANNELS 3 Xrotation Zrotation Yrotation
		JOINT chest
		{
			OFFSET 0.000000 8.438565 -0.680529 
			CHANNELS 3 Xrotation Zrotation Yrotation
			JOINT neck
			{
				OFFSET 0.000000 10.207942 -0.272212 
				CHANNELS 3 Xrotation Zrotation Yrotation
				JOINT head
				{
					OFFSET 0.000000 3.130431 0.000000 
					CHANNELS 3 Xrotation Zrotation Yrotation
					End Site
					{
						OFFSET 0.000000 3.130435 0.000000 
					}
				}
			}
			JOINT lCollar
			{
				OFFSET 3.470700 6.669187 -0.816635 
				CHANNELS 3 Yrotation Zrotation Xrotation
				JOINT lShldr
				{
					OFFSET 3.198488 0.000000 0.000000 
					CHANNELS 3 Zrotation Yrotation Xrotation
					JOINT lForeArm
					{
						OFFSET 10.139888 0.000000 0.000000 
						CHANNELS 3 Yrotation Zrotation Xrotation
						JOINT lHand
						{
							OFFSET 8.370511 0.000000 0.000000 
							CHANNELS 3 Zrotation Yrotation Xrotation
							End Site
							{
								OFFSET 4.083176 0.000000 0.000000 
							}
						}
					}
				}
			}
			JOINT rCollar
			{
				OFFSET -3.470700 6.669187 -0.816635 
				CHANNELS 3 Yrotation Zrotation Xrotation
				JOINT rShldr
				{
					OFFSET -3.198488 0.000000 0.000000 
					CHANNELS 3 Zrotation Yrotation Xrotation
					JOINT rForeArm
					{
						OFFSET -10.139888 0.000000 0.000000 
						CHANNELS 3 Yrotation Zrotation Xrotation
						JOINT rHand
						{
							OFFSET -8.370511 0.000000 0.000000 
							CHANNELS 3 Zrotation Yrotation Xrotation
							End Site
							{
								OFFSET -4.083176 0.000000 0.000000 
							}
						}
					}
				}
			}
		}
	}
	JOINT lThigh
	{
		OFFSET 5.308129 -1.633274 1.361059 
		CHANNELS 3 Xrotation Zrotation Yrotation
		JOINT lShin
		{
			OFFSET -2.041588 -20.007561 0.000000 
			CHANNELS 3 Xrotation Zrotation Yrotation
			JOINT lFoot
			{
				OFFSET 0.000000 -19.190928 -1.224953 
				CHANNELS 3 Xrotation Yrotation Zrotation
				End Site
				{
					OFFSET 0.000000 -2.449906 4.627600 
				}
			}
		}
	}
	JOINT rThigh
	{
		OFFSET -5.308129 -1.633274 1.361059 
		CHANNELS 3 Xrotation Zrotation Yrotation
		JOINT rShin
		{
			OFFSET 2.041588 -20.007561 0.000000 
			CHANNELS 3 Xrotation Zrotation Yrotation
			JOINT rFoot
			{
				OFFSET 0.000000 -19.190928 -1.224953 
				CHANNELS 3 Xrotation Yrotation Zrotation
				End Site
				{
					OFFSET 0.000000 -2.449906 4.627600 
				}
			}
		}
	}
}
MOTION
Frames: 15
Frame Time: 0.033333
0.000000 28.622293 0.000000 0.000000 0.000000 0.000000 29.822811 -7.874106 -5.629282 -14.003906 9.003906 3.478091 10.545534 3.046592 0.486917 -10.751954 -3.134765 0.478516 2.000000 -2.000000 0.000000 -49.609375 -10.136718 -45.831799 -97.209183 1.698210 -6.574792 -16.555645 -0.548924 -25.923580 -2.000000 2.000000 0.000000 74.404297 -2.431641 -54.433807 97.976601 4.650481 -15.608372 -4.168087 -24.866173 4.740554 -73.570755 12.050051 -2.959642 65.269241 -3.306401 -2.126736 -10.712660 0.079871 -0.004154 -73.920067 -22.547798 4.587750 59.734436 3.730328 1.474327 11.948262 0.106597 0.861945 
0.000000 30.344646 0.000000 0.000000 0.000000 0.000000 29.822811 -7.874106 -5.629282 -15.332031 9.082031 3.281250 8.485404 3.019657 0.570005 -14.091797 -3.115234 0.664062 2.000000 -2.000000 0.000000 -49.609375 -10.136718 -45.831799 -81.851067 -0.013368 -6.224545 -23.295628 11.325218 -28.172115 -2.000000 2.000000 0.000000 74.404297 -2.431641 -54.424046 91.496254 6.372499 -14.854484 -4.556788 -28.773880 4.724625 -73.570755 12.050051 -2.959642 65.269241 -3.306401 -2.126736 -19.159952 0.078641 0.057196 -73.920067 -22.547798 4.587750 59.724289 3.730281 1.483065 23.934439 0.374246 1.604669 
0.000000 32.096439 0.000000 0.000000 0.000000 0.000000 29.822811 -7.874106 -5.629282 -16.679688 9.150390 3.058193 6.444669 3.012033 0.650172 -17.392582 -3.066406 0.839844 2.000000 -2.000000 0.000000 -49.609375 -10.136718 -45.831799 -66.497887 -1.566357 -5.491333 -30.871277 22.716248 -32.022148 -2.000000 2.000000 0.000000 74.414063 -2.431641 -54.424046 85.025467 8.015316 -13.895209 -4.845929 -32.661808 4.712867 -73.570755 12.050051 -2.959642 65.269241 -3.306401 -2.126736 -27.636608 0.031617 0.113951 -73.920067 -22.547798 4.587750 59.724289 3.730283 1.483065 35.947243 0.788485 2.344877 
0.000000 33.546452 0.000000 0.000000 0.000000 0.000000 29.822811 -7.874106 -5.629282 -18.017580 9.218750 2.841797 4.394123 3.015524 0.738535 -20.771484 -3.007812 1.025391 2.000000 -2.000000 0.000000 -49.609375 -10.146484 -45.822033 -51.121189 -2.861136 -4.350400 -40.234245 33.512592 -38.103687 -2.000000 2.000000 0.000000 74.404297 -2.431641 -54.424046 78.421066 9.532844 -12.793357 -5.101782 -36.500866 4.705857 -73.570755 12.050051 -2.959642 65.269241 -3.306399 -2.126736 -35.976406 -0.048351 0.211330 -73.920067 -22.547798 4.587750 59.714500 3.730474 1.482257 47.859516 1.355530 2.982148 
0.000000 32.096439 0.000000 0.000000 0.000000 0.000000 29.822811 -7.874106 -5.629282 -16.679688 9.150390 3.058193 6.444669 3.012033 0.650172 -17.392582 -3.066406 0.839844 2.000000 -2.000000 0.000000 -49.609375 -10.146484 -45.822033 -66.497887 -1.566357 -5.491333 -30.971479 22.846479 -32.081818 -2.000000 2.000000 0.000000 74.404297 -2.431641 -54.424046 85.005867 8.025068 -13.894711 -4.396352 -28.792803 4.474104 -73.570755 12.050051 -2.959642 65.269241 -3.306401 -2.126736 -27.636608 0.031617 0.113951 -73.920067 -22.547798 4.587750 59.714500 3.730474 1.482257 35.956818 0.792993 2.344950 
0.000000 30.344646 0.000000 0.000000 0.000000 0.000000 29.822811 -7.874106 -5.629282 -15.332031 9.082031 3.281250 8.485404 3.019657 0.570005 -14.091797 -3.115234 0.664062 2.000000 -2.000000 0.000000 -49.609375 -10.146484 -45.822033 -81.860832 -0.003618 -6.225094 -23.295628 11.325218 -28.172115 -2.000000 2.000000 0.000000 74.404297 -2.431641 -54.424046 91.496254 6.372499 -14.854484 -3.754914 -21.036701 4.356074 -73.570755 12.050051 -2.959642 65.269241 -3.306401 -2.126736 -19.159952 0.078641 0.057196 -73.920067 -22.547798 4.587750 59.714500 3.730475 1.482257 23.935078 0.358270 1.602189 
0.000000 28.622293 0.000000 0.000000 0.000000 0.000000 29.822811 -7.874106 -5.629282 -14.003906 9.003906 3.478091 10.545534 3.046592 0.486917 -10.751954 -3.134765 0.478516 2.000000 -2.000000 0.000000 -49.609375 -10.146484 -45.822033 -97.218643 1.698756 -6.565047 -16.622002 -0.440301 -25.929487 -2.000000 2.000000 0.000000 74.404297 -2.431641 -54.424046 97.976601 4.650481 -15.608372 -3.165097 -13.290959 4.315164 -73.570755 12.050051 -2.959642 65.269241 -3.306401 -2.126736 -10.712660 0.079871 -0.004154 -73.920067 -22.547798 4.587750 59.714500 3.730474 1.482257 11.939815 0.071260 0.832547 
0.000000 28.600214 0.000000 0.000000 0.000000 0.000000 29.822811 -7.874106 -5.629282 -12.675782 8.916017 3.691406 12.576447 3.062411 0.395634 -7.490236 -3.164063 0.302735 2.000000 -2.000000 0.000000 -49.599609 -10.136718 -45.822029 -112.568260 3.427911 -6.428553 -10.215017 -12.488236 -25.068588 -2.000000 2.000000 0.000000 74.404297 -2.431641 -54.424046 104.322227 2.852982 -16.227661 -2.563274 -5.633480 4.345345 -73.570755 12.050051 -2.959642 65.269241 -3.306399 -2.126736 -2.460814 0.033331 -0.018128 -73.920067 -22.547798 4.587750 59.714500 3.730474 1.482257 0.044065 -0.033521 0.029075 
0.000000 28.622293 0.000000 0.000000 0.000000 0.000000 29.822811 -7.874106 -5.629282 -14.003906 9.003906 3.478091 10.545534 3.046592 0.486917 -10.751954 -3.134765 0.478516 2.000000 -2.000000 0.000000 -49.599609 -10.136718 -45.822029 -97.218643 1.698756 -6.565047 -16.555645 -0.548924 -25.923580 -2.000000 2.000000 0.000000 74.404297 -2.431641 -54.424046 97.976601 4.650481 -15.608372 -3.100350 -12.226356 4.299600 -73.570755 12.050051 -2.959642 65.269241 -3.306401 -2.126736 -10.712660 0.079871 -0.004154 -73.920067 -22.547798 4.587750 59.714500 3.730474 1.482257 11.939815 0.071260 0.832547 
0.000000 30.344646 0.000000 0.000000 0.000000 0.000000 29.822811 -7.874106 -5.629282 -15.332031 9.082031 3.281250 8.485404 3.019657 0.570005 -14.091797 -3.115234 0.664062 2.000000 -2.000000 0.000000 -49.599609 -10.136718 -45.822029 -81.860832 -0.003618 -6.225094 -23.295628 11.325218 -28.172115 -2.000000 2.000000 0.000000 74.404297 -2.431641 -54.424046 91.496254 6.372499 -14.854484 -3.599987 -18.829210 4.310138 -73.570755 12.050051 -2.959642 65.269241 -3.306401 -2.126736 -19.159952 0.078641 0.057196 -73.920067 -22.547798 4.587750 59.714500 3.730475 1.482257 23.935078 0.358270 1.602189 
0.000000 32.096439 0.000000 0.000000 0.000000 0.000000 29.822811 -7.874106 -5.629282 -16.679688 9.150390 3.058193 6.444669 3.012033 0.650172 -17.392582 -3.066406 0.839844 2.000000 -2.000000 0.000000 -49.599609 -10.136718 -45.822029 -66.497887 -1.566357 -5.491333 -30.871277 22.716248 -32.022148 -2.000000 2.000000 0.000000 74.404297 -2.431641 -54.424046 85.005867 8.025068 -13.894711 -4.156155 -25.452074 4.389443 -73.570755 12.050051 -2.959642 65.269241 -3.306401 -2.126736 -27.636608 0.031617 0.113951 -73.920067 -22.547798 4.587750 59.714500 3.730474 1.482257 35.956818 0.792993 2.344950 
0.000000 33.546452 0.000000 0.000000 0.000000 0.000000 29.822811 -7.874106 -5.629282 -18.017580 9.218750 2.841797 4.394123 3.015524 0.738535 -20.771484 -3.007812 1.025391 2.000000 -2.000000 0.000000 -49.609375 -10.146484 -45.822033 -51.121189 -2.861136 -4.350400 -40.234245 33.512592 -38.103687 -2.000000 2.000000 0.000000 74.404297 -2.431641 -54.424046 78.421066 9.532844 -12.793357 -4.670803 -32.114204 4.492816 -73.570755 12.050051 -2.959642 65.269241 -3.306399 -2.126736 -35.976406 -0.048351 0.211330 -73.920067 -22.547798 4.587750 59.714500 3.730474 1.482257 47.859516 1.355530 2.982148 
0.000000 32.096439 0.000000 0.000000 0.000000 0.000000 29.822811 -7.874106 -5.629282 -16.679688 9.150390 3.058193 6.444669 3.012033 0.650172 -17.392582 -3.066406 0.839844 2.000000 -2.000000 0.000000 -52.089844 -23.310547 -41.361282 -56.318821 -2.472794 -4.745017 -25.000437 24.518120 -22.214256 -2.000000 2.000000 0.000000 74.404297 -2.431641 -54.424046 86.038391 7.778524 -14.045451 -4.406631 -28.617058 4.434550 -73.570755 12.050051 -2.959642 65.269241 -3.306401 -2.126736 -29.658010 0.059893 0.135755 -73.920067 -22.547798 4.587750 59.714500 3.730474 1.482257 35.956818 0.792993 2.344950 
0.000000 30.344646 0.000000 0.000000 0.000000 0.000000 29.822811 -7.874106 -5.629282 -15.332031 9.082031 3.281250 8.485404 3.019657 0.570005 -14.091797 -3.115234 0.664062 2.000000 -2.000000 0.000000 -56.181641 -36.416016 -35.513611 -61.672741 -2.055120 -5.140676 -13.594870 12.509678 -10.121933 -2.000000 2.000000 0.000000 74.404297 -2.431641 -54.424046 93.647392 5.799196 -15.118943 -4.138753 -25.080923 4.341683 -73.570755 12.050051 -2.959642 65.269241 -3.306401 -2.126736 -23.339638 0.083326 0.075616 -73.920067 -22.547798 4.587750 59.714500 3.730475 1.482257 23.935078 0.358270 1.602189 
0.000000 28.622293 0.000000 0.000000 0.000000 0.000000 29.822811 -7.874106 -5.629282 -14.003906 9.003906 3.478091 10.545534 3.046592 0.486917 -10.751954 -3.134765 0.478516 2.000000 -2.000000 0.000000 -63.291012 -48.964844 -26.872602 -66.956566 -1.575555 -5.481036 -5.165937 -1.292059 -0.811670 -2.000000 2.000000 0.000000 74.404297 -2.431641 -54.424046 101.154190 3.765907 -15.908069 -3.810293 -21.544683 4.225905 -73.570755 12.050051 -2.959642 65.269241 -3.306401 -2.126736 -17.070086 0.082535 0.046317 -73.920067 -22.547798 4.587750 59.714500 3.730474 1.482257 11.939815 0.071260 0.832547 
